# xmcd CD database file
#
# Track frame offsets:
#	150
#	17179
#	36228
#	54058
#	78512
#	98691
#	116170
#	144754
#	163728
#
# Disc length: 2474 seconds
#
# Revision: 1
# Processed by: cddbd v1.5PL3 Copyright (c) Steve Scherf et al.
# Submitted via: CDex 1.51
#
DISCID=6909a809
DTITLE=Al Jarreau - Breakin Away
DYEAR=1900
DGENRE=Jazz
TTITLE0=We're In This Love Together
TTITLE1=Breakin Away
TTITLE2=Closer To Your Love
TTITLE3=Easy
TTITLE4=My Old Friend
TTITLE5=Our Love
TTITLE6=Roof Garden
TTITLE7=Teach Me Tonight
TTITLE8=(Round, Round, Round) Blue Rondo A La Turk
EXTD=
EXTT0=
EXTT1=
EXTT2=
EXTT3=
EXTT4=
EXTT5=
EXTT6=
EXTT7=
EXTT8=
PLAYORDER=
